G04 (created by PCBNEW (2013-07-07 BZR 4022)-stable) date 2014/09/01 18:11:11*
%MOIN*%
G04 Gerber Fmt 3.4, Leading zero omitted, Abs format*
%FSLAX34Y34*%
G01*
G70*
G90*
G04 APERTURE LIST*
%ADD10C,0.00590551*%
%ADD11R,0.0216535X0.0472441*%
%ADD12R,0.0551181X0.0511811*%
%ADD13R,0.0314961X0.0511811*%
%ADD14R,0.0472441X0.0314961*%
%ADD15R,0.0354X0.0394*%
%ADD16C,0.0531496*%
%ADD17C,0.035*%
%ADD18C,0.02*%
%ADD19C,0.012*%
%ADD20C,0.008*%
%ADD21C,0.005*%
G04 APERTURE END LIST*
G54D10*
G54D11*
X13366Y-7519D03*
X12992Y-7519D03*
X12618Y-7519D03*
X12618Y-8622D03*
X12992Y-8622D03*
X13366Y-8622D03*
G54D12*
X11584Y-7657D03*
G54D13*
X10738Y-7657D03*
X9734Y-7657D03*
X8750Y-7657D03*
X8750Y-8484D03*
X9734Y-8484D03*
X10718Y-8484D03*
X11702Y-8484D03*
G54D14*
X7795Y-8464D03*
X7795Y-7755D03*
G54D15*
X7776Y-9094D03*
X7184Y-9094D03*
X7776Y-7125D03*
X7184Y-7125D03*
G54D16*
X8661Y-9645D03*
X9448Y-9645D03*
X10236Y-9645D03*
X11023Y-9645D03*
X11811Y-9645D03*
X12598Y-9645D03*
X13385Y-9645D03*
G54D17*
X13307Y-8110D03*
X7165Y-8110D03*
X9291Y-8110D03*
G54D18*
X12618Y-8622D03*
X13366Y-8622D03*
X12992Y-8622D03*
G54D19*
X12992Y-7795D02*
X12992Y-7519D01*
X13307Y-8110D02*
X12992Y-7795D01*
X9734Y-8484D02*
X9665Y-8484D01*
X7165Y-8110D02*
X7184Y-8110D01*
X9665Y-8484D02*
X9291Y-8110D01*
X9734Y-8484D02*
X10718Y-8484D01*
X8661Y-9645D02*
X7440Y-9645D01*
X7184Y-9389D02*
X7184Y-9094D01*
X7440Y-9645D02*
X7184Y-9389D01*
X7184Y-9094D02*
X7184Y-8110D01*
X7184Y-8110D02*
X7184Y-7125D01*
G54D20*
X9734Y-7657D02*
X9734Y-7509D01*
X12263Y-7165D02*
X12618Y-7519D01*
X10078Y-7165D02*
X12263Y-7165D01*
X9734Y-7509D02*
X10078Y-7165D01*
G54D19*
X8740Y-6929D02*
X8740Y-7647D01*
X8740Y-7647D02*
X8750Y-7657D01*
X7776Y-7125D02*
X7992Y-7125D01*
X13366Y-7145D02*
X13366Y-7519D01*
X13149Y-6929D02*
X13366Y-7145D01*
X8188Y-6929D02*
X8740Y-6929D01*
X8740Y-6929D02*
X13149Y-6929D01*
X7992Y-7125D02*
X8188Y-6929D01*
X7795Y-7755D02*
X7795Y-7144D01*
X7795Y-7144D02*
X7776Y-7125D01*
G54D20*
X10738Y-7657D02*
X10738Y-7824D01*
X12007Y-9055D02*
X12598Y-9645D01*
X11417Y-9055D02*
X12007Y-9055D01*
X11259Y-8897D02*
X11417Y-9055D01*
X11259Y-8346D02*
X11259Y-8897D01*
X10738Y-7824D02*
X11259Y-8346D01*
X11584Y-7657D02*
X11673Y-7657D01*
X12952Y-9212D02*
X13385Y-9645D01*
X12598Y-9212D02*
X12952Y-9212D01*
X12283Y-8897D02*
X12598Y-9212D01*
X12283Y-8267D02*
X12283Y-8897D01*
X11673Y-7657D02*
X12283Y-8267D01*
G54D19*
X7776Y-9094D02*
X7776Y-8483D01*
X7776Y-8483D02*
X7795Y-8464D01*
X9448Y-9645D02*
X9409Y-9645D01*
X8858Y-9094D02*
X7776Y-9094D01*
X9409Y-9645D02*
X8858Y-9094D01*
G54D10*
G36*
X13833Y-10111D02*
X12181Y-10111D01*
X12181Y-9572D01*
X12125Y-9435D01*
X12021Y-9331D01*
X11885Y-9274D01*
X11737Y-9274D01*
X11601Y-9331D01*
X11496Y-9435D01*
X11440Y-9571D01*
X11440Y-9719D01*
X11496Y-9855D01*
X11600Y-9959D01*
X11736Y-10016D01*
X11884Y-10016D01*
X12020Y-9960D01*
X12125Y-9855D01*
X12181Y-9719D01*
X12181Y-9572D01*
X12181Y-10111D01*
X11973Y-10111D01*
X11394Y-10105D01*
X11394Y-9572D01*
X11338Y-9435D01*
X11233Y-9331D01*
X11097Y-9274D01*
X11001Y-9274D01*
X11001Y-8715D01*
X11000Y-8549D01*
X10969Y-8518D01*
X10752Y-8518D01*
X10752Y-8833D01*
X10783Y-8865D01*
X10900Y-8865D01*
X10946Y-8846D01*
X10981Y-8811D01*
X11000Y-8765D01*
X11001Y-8715D01*
X11001Y-9274D01*
X10950Y-9274D01*
X10813Y-9331D01*
X10709Y-9435D01*
X10684Y-9495D01*
X10684Y-8833D01*
X10684Y-8518D01*
X10684Y-8450D01*
X10684Y-8134D01*
X10653Y-8103D01*
X10536Y-8103D01*
X10490Y-8122D01*
X10455Y-8157D01*
X10436Y-8203D01*
X10436Y-8253D01*
X10436Y-8419D01*
X10467Y-8450D01*
X10684Y-8450D01*
X10684Y-8518D01*
X10467Y-8518D01*
X10436Y-8549D01*
X10436Y-8715D01*
X10436Y-8765D01*
X10455Y-8811D01*
X10490Y-8846D01*
X10536Y-8865D01*
X10653Y-8865D01*
X10684Y-8833D01*
X10684Y-9495D01*
X10652Y-9571D01*
X10652Y-9719D01*
X10709Y-9855D01*
X10813Y-9959D01*
X10949Y-10016D01*
X11097Y-10016D01*
X11233Y-9960D01*
X11337Y-9855D01*
X11394Y-9719D01*
X11394Y-9572D01*
X11394Y-10105D01*
X10607Y-10096D01*
X10607Y-9572D01*
X10550Y-9435D01*
X10446Y-9331D01*
X10310Y-9274D01*
X10162Y-9274D01*
X10026Y-9331D01*
X10016Y-9340D01*
X10016Y-8715D01*
X10016Y-8253D01*
X10016Y-8203D01*
X9997Y-8157D01*
X9962Y-8122D01*
X9916Y-8103D01*
X9799Y-8103D01*
X9768Y-8134D01*
X9768Y-8450D01*
X9985Y-8450D01*
X10016Y-8419D01*
X10016Y-8253D01*
X10016Y-8715D01*
X10016Y-8549D01*
X9985Y-8518D01*
X9768Y-8518D01*
X9768Y-8833D01*
X9799Y-8865D01*
X9916Y-8865D01*
X9962Y-8846D01*
X9997Y-8811D01*
X10016Y-8765D01*
X10016Y-8715D01*
X10016Y-9340D01*
X9922Y-9435D01*
X9865Y-9571D01*
X9865Y-9719D01*
X9921Y-9855D01*
X10025Y-9959D01*
X10162Y-10016D01*
X10309Y-10016D01*
X10445Y-9960D01*
X10550Y-9855D01*
X10606Y-9719D01*
X10607Y-9572D01*
X10607Y-10096D01*
X9819Y-10087D01*
X9819Y-9572D01*
X9763Y-9435D01*
X9700Y-9372D01*
X9700Y-8833D01*
X9700Y-8518D01*
X9700Y-8450D01*
X9700Y-8134D01*
X9669Y-8103D01*
X9552Y-8103D01*
X9506Y-8122D01*
X9470Y-8157D01*
X9451Y-8203D01*
X9451Y-8253D01*
X9451Y-8419D01*
X9483Y-8450D01*
X9700Y-8450D01*
X9700Y-8518D01*
X9483Y-8518D01*
X9451Y-8549D01*
X9451Y-8715D01*
X9451Y-8765D01*
X9470Y-8811D01*
X9506Y-8846D01*
X9552Y-8865D01*
X9669Y-8865D01*
X9700Y-8833D01*
X9700Y-9372D01*
X9659Y-9331D01*
X9522Y-9274D01*
X9375Y-9274D01*
X9302Y-9305D01*
X9012Y-9015D01*
X9012Y-8719D01*
X9012Y-8207D01*
X8996Y-8168D01*
X8967Y-8139D01*
X8928Y-8123D01*
X8886Y-8123D01*
X8571Y-8123D01*
X8533Y-8139D01*
X8503Y-8168D01*
X8487Y-8207D01*
X8487Y-8249D01*
X8487Y-8760D01*
X8503Y-8799D01*
X8532Y-8829D01*
X8571Y-8845D01*
X8613Y-8845D01*
X8928Y-8845D01*
X8966Y-8829D01*
X8996Y-8799D01*
X9012Y-8761D01*
X9012Y-8719D01*
X9012Y-9015D01*
X8974Y-8977D01*
X8921Y-8942D01*
X8858Y-8929D01*
X8058Y-8929D01*
X8058Y-8876D01*
X8042Y-8838D01*
X8012Y-8808D01*
X7974Y-8792D01*
X7941Y-8792D01*
X7941Y-8727D01*
X8052Y-8727D01*
X8090Y-8711D01*
X8120Y-8681D01*
X8136Y-8643D01*
X8136Y-8601D01*
X8136Y-8286D01*
X8120Y-8247D01*
X8091Y-8218D01*
X8052Y-8202D01*
X8010Y-8202D01*
X7538Y-8202D01*
X7499Y-8218D01*
X7470Y-8247D01*
X7454Y-8286D01*
X7454Y-8327D01*
X7454Y-8642D01*
X7469Y-8681D01*
X7499Y-8711D01*
X7538Y-8727D01*
X7579Y-8727D01*
X7611Y-8727D01*
X7611Y-8792D01*
X7578Y-8792D01*
X7539Y-8808D01*
X7510Y-8837D01*
X7494Y-8876D01*
X7494Y-8918D01*
X7494Y-9312D01*
X7510Y-9350D01*
X7539Y-9380D01*
X7578Y-9396D01*
X7620Y-9396D01*
X7974Y-9396D01*
X8012Y-9380D01*
X8042Y-9351D01*
X8058Y-9312D01*
X8058Y-9270D01*
X8058Y-9259D01*
X8564Y-9259D01*
X8455Y-9304D01*
X8426Y-9363D01*
X8661Y-9597D01*
X8666Y-9592D01*
X8715Y-9640D01*
X8709Y-9645D01*
X8943Y-9880D01*
X9002Y-9851D01*
X9055Y-9705D01*
X9048Y-9549D01*
X9025Y-9494D01*
X9085Y-9554D01*
X9078Y-9571D01*
X9078Y-9719D01*
X9134Y-9855D01*
X9238Y-9959D01*
X9374Y-10016D01*
X9522Y-10016D01*
X9658Y-9960D01*
X9762Y-9855D01*
X9819Y-9719D01*
X9819Y-9572D01*
X9819Y-10087D01*
X8895Y-10077D01*
X8895Y-9928D01*
X8661Y-9693D01*
X8613Y-9741D01*
X8613Y-9645D01*
X8378Y-9411D01*
X8320Y-9439D01*
X8267Y-9586D01*
X8274Y-9741D01*
X8320Y-9851D01*
X8378Y-9880D01*
X8613Y-9645D01*
X8613Y-9741D01*
X8426Y-9928D01*
X8455Y-9986D01*
X8601Y-10039D01*
X8757Y-10032D01*
X8867Y-9986D01*
X8895Y-9928D01*
X8895Y-10077D01*
X7486Y-10061D01*
X7486Y-9266D01*
X7486Y-8922D01*
X7486Y-8872D01*
X7467Y-8826D01*
X7432Y-8791D01*
X7386Y-8772D01*
X7249Y-8772D01*
X7218Y-8803D01*
X7218Y-9060D01*
X7455Y-9060D01*
X7486Y-9029D01*
X7486Y-8922D01*
X7486Y-9266D01*
X7486Y-9159D01*
X7455Y-9128D01*
X7218Y-9128D01*
X7218Y-9385D01*
X7249Y-9416D01*
X7386Y-9416D01*
X7432Y-9397D01*
X7467Y-9362D01*
X7486Y-9316D01*
X7486Y-9266D01*
X7486Y-10061D01*
X7150Y-10057D01*
X7150Y-9385D01*
X7150Y-9128D01*
X7150Y-9060D01*
X7150Y-8803D01*
X7150Y-7416D01*
X7150Y-7159D01*
X6913Y-7159D01*
X6882Y-7191D01*
X6882Y-7298D01*
X6882Y-7347D01*
X6901Y-7393D01*
X6936Y-7429D01*
X6982Y-7448D01*
X7119Y-7447D01*
X7150Y-7416D01*
X7150Y-8803D01*
X7119Y-8772D01*
X6982Y-8772D01*
X6936Y-8791D01*
X6901Y-8826D01*
X6882Y-8872D01*
X6882Y-8922D01*
X6882Y-9029D01*
X6913Y-9060D01*
X7150Y-9060D01*
X7150Y-9128D01*
X6913Y-9128D01*
X6882Y-9159D01*
X6882Y-9266D01*
X6882Y-9316D01*
X6901Y-9362D01*
X6936Y-9397D01*
X6982Y-9416D01*
X7119Y-9416D01*
X7150Y-9385D01*
X7150Y-10057D01*
X6817Y-10054D01*
X6817Y-6817D01*
X6949Y-6817D01*
X6936Y-6822D01*
X6901Y-6858D01*
X6882Y-6904D01*
X6882Y-6953D01*
X6882Y-7060D01*
X6913Y-7091D01*
X7150Y-7091D01*
X7150Y-7084D01*
X7218Y-7084D01*
X7218Y-7091D01*
X7455Y-7091D01*
X7486Y-7060D01*
X7486Y-6953D01*
X7486Y-6904D01*
X7467Y-6858D01*
X7432Y-6822D01*
X7419Y-6817D01*
X8067Y-6817D01*
X8028Y-6855D01*
X8012Y-6840D01*
X7974Y-6824D01*
X7932Y-6823D01*
X7578Y-6823D01*
X7539Y-6839D01*
X7510Y-6869D01*
X7494Y-6908D01*
X7494Y-6949D01*
X7494Y-7343D01*
X7510Y-7382D01*
X7539Y-7411D01*
X7578Y-7427D01*
X7620Y-7428D01*
X7630Y-7428D01*
X7630Y-7493D01*
X7538Y-7493D01*
X7499Y-7509D01*
X7486Y-7522D01*
X7486Y-7298D01*
X7486Y-7191D01*
X7455Y-7159D01*
X7218Y-7159D01*
X7218Y-7416D01*
X7249Y-7447D01*
X7386Y-7448D01*
X7432Y-7429D01*
X7467Y-7393D01*
X7486Y-7347D01*
X7486Y-7298D01*
X7486Y-7522D01*
X7470Y-7538D01*
X7454Y-7577D01*
X7454Y-7619D01*
X7454Y-7934D01*
X7469Y-7972D01*
X7499Y-8002D01*
X7538Y-8018D01*
X7579Y-8018D01*
X8052Y-8018D01*
X8090Y-8002D01*
X8120Y-7972D01*
X8136Y-7934D01*
X8136Y-7892D01*
X8136Y-7577D01*
X8120Y-7539D01*
X8091Y-7509D01*
X8052Y-7493D01*
X8010Y-7493D01*
X7960Y-7493D01*
X7960Y-7428D01*
X7974Y-7428D01*
X8012Y-7412D01*
X8042Y-7382D01*
X8058Y-7343D01*
X8058Y-7302D01*
X8058Y-7276D01*
X8058Y-7276D01*
X8108Y-7242D01*
X8257Y-7094D01*
X8575Y-7094D01*
X8575Y-7296D01*
X8571Y-7296D01*
X8533Y-7312D01*
X8503Y-7342D01*
X8487Y-7380D01*
X8487Y-7422D01*
X8487Y-7934D01*
X8503Y-7972D01*
X8532Y-8002D01*
X8571Y-8018D01*
X8613Y-8018D01*
X8928Y-8018D01*
X8966Y-8002D01*
X8996Y-7972D01*
X9012Y-7934D01*
X9012Y-7892D01*
X9012Y-7380D01*
X8996Y-7342D01*
X8967Y-7312D01*
X8928Y-7296D01*
X8905Y-7296D01*
X8905Y-7094D01*
X9944Y-7094D01*
X9742Y-7296D01*
X9555Y-7296D01*
X9517Y-7312D01*
X9487Y-7342D01*
X9471Y-7380D01*
X9471Y-7422D01*
X9471Y-7934D01*
X9487Y-7972D01*
X9517Y-8002D01*
X9555Y-8018D01*
X9597Y-8018D01*
X9912Y-8018D01*
X9951Y-8002D01*
X9980Y-7972D01*
X9996Y-7934D01*
X9996Y-7892D01*
X9996Y-7452D01*
X10138Y-7310D01*
X10526Y-7310D01*
X10521Y-7312D01*
X10491Y-7342D01*
X10475Y-7380D01*
X10475Y-7422D01*
X10475Y-7934D01*
X10491Y-7972D01*
X10521Y-8002D01*
X10559Y-8018D01*
X10601Y-8018D01*
X10726Y-8018D01*
X10811Y-8103D01*
X10783Y-8103D01*
X10752Y-8134D01*
X10752Y-8450D01*
X10969Y-8450D01*
X11000Y-8419D01*
X11001Y-8292D01*
X11114Y-8406D01*
X11114Y-8897D01*
X11124Y-8943D01*
X11125Y-8953D01*
X11157Y-9000D01*
X11314Y-9157D01*
X11314Y-9157D01*
X11346Y-9178D01*
X11361Y-9189D01*
X11361Y-9189D01*
X11417Y-9200D01*
X11947Y-9200D01*
X12254Y-9506D01*
X12227Y-9571D01*
X12227Y-9719D01*
X12283Y-9855D01*
X12388Y-9959D01*
X12524Y-10016D01*
X12671Y-10016D01*
X12808Y-9960D01*
X12912Y-9855D01*
X12969Y-9719D01*
X12969Y-9572D01*
X12912Y-9435D01*
X12834Y-9357D01*
X12892Y-9357D01*
X13042Y-9506D01*
X13015Y-9571D01*
X13015Y-9719D01*
X13071Y-9855D01*
X13175Y-9959D01*
X13311Y-10016D01*
X13459Y-10016D01*
X13595Y-9960D01*
X13699Y-9855D01*
X13756Y-9719D01*
X13756Y-9572D01*
X13700Y-9435D01*
X13596Y-9331D01*
X13459Y-9274D01*
X13312Y-9274D01*
X13247Y-9301D01*
X13055Y-9110D01*
X13008Y-9078D01*
X12999Y-9076D01*
X12952Y-9067D01*
X12658Y-9067D01*
X12554Y-8963D01*
X12747Y-8963D01*
X12785Y-8947D01*
X12805Y-8928D01*
X12824Y-8947D01*
X12862Y-8963D01*
X12904Y-8963D01*
X13121Y-8963D01*
X13159Y-8947D01*
X13179Y-8928D01*
X13198Y-8947D01*
X13236Y-8963D01*
X13278Y-8963D01*
X13495Y-8963D01*
X13533Y-8947D01*
X13563Y-8917D01*
X13579Y-8879D01*
X13579Y-8837D01*
X13579Y-8365D01*
X13563Y-8326D01*
X13533Y-8296D01*
X13495Y-8280D01*
X13453Y-8280D01*
X13237Y-8280D01*
X13198Y-8296D01*
X13179Y-8316D01*
X13159Y-8296D01*
X13121Y-8280D01*
X13079Y-8280D01*
X12863Y-8280D01*
X12824Y-8296D01*
X12805Y-8316D01*
X12785Y-8296D01*
X12747Y-8280D01*
X12705Y-8280D01*
X12489Y-8280D01*
X12450Y-8296D01*
X12428Y-8318D01*
X12428Y-8267D01*
X12419Y-8221D01*
X12417Y-8212D01*
X12417Y-8212D01*
X12385Y-8165D01*
X11965Y-7744D01*
X11965Y-7380D01*
X11949Y-7342D01*
X11919Y-7312D01*
X11914Y-7310D01*
X12203Y-7310D01*
X12404Y-7511D01*
X12404Y-7776D01*
X12420Y-7815D01*
X12450Y-7844D01*
X12488Y-7860D01*
X12530Y-7860D01*
X12747Y-7860D01*
X12785Y-7844D01*
X12790Y-7839D01*
X12813Y-7861D01*
X12859Y-7880D01*
X12926Y-7880D01*
X12958Y-7849D01*
X12958Y-7553D01*
X12950Y-7553D01*
X12950Y-7485D01*
X12958Y-7485D01*
X12958Y-7189D01*
X12926Y-7158D01*
X12859Y-7158D01*
X12813Y-7177D01*
X12790Y-7199D01*
X12785Y-7194D01*
X12747Y-7178D01*
X12705Y-7178D01*
X12489Y-7178D01*
X12484Y-7180D01*
X12397Y-7094D01*
X13081Y-7094D01*
X13159Y-7172D01*
X13125Y-7158D01*
X13057Y-7158D01*
X13026Y-7189D01*
X13026Y-7485D01*
X13034Y-7485D01*
X13034Y-7553D01*
X13026Y-7553D01*
X13026Y-7849D01*
X13057Y-7880D01*
X13125Y-7880D01*
X13171Y-7861D01*
X13193Y-7839D01*
X13198Y-7844D01*
X13236Y-7860D01*
X13278Y-7860D01*
X13495Y-7860D01*
X13533Y-7844D01*
X13563Y-7815D01*
X13579Y-7776D01*
X13579Y-7735D01*
X13579Y-7262D01*
X13563Y-7224D01*
X13533Y-7194D01*
X13531Y-7193D01*
X13531Y-7145D01*
X13518Y-7082D01*
X13482Y-7028D01*
X13482Y-7028D01*
X13271Y-6817D01*
X13833Y-6817D01*
X13833Y-10111D01*
X13833Y-10111D01*
G37*
G54D21*
X13833Y-10111D02*
X12181Y-10111D01*
X12181Y-9572D01*
X12125Y-9435D01*
X12021Y-9331D01*
X11885Y-9274D01*
X11737Y-9274D01*
X11601Y-9331D01*
X11496Y-9435D01*
X11440Y-9571D01*
X11440Y-9719D01*
X11496Y-9855D01*
X11600Y-9959D01*
X11736Y-10016D01*
X11884Y-10016D01*
X12020Y-9960D01*
X12125Y-9855D01*
X12181Y-9719D01*
X12181Y-9572D01*
X12181Y-10111D01*
X11973Y-10111D01*
X11394Y-10105D01*
X11394Y-9572D01*
X11338Y-9435D01*
X11233Y-9331D01*
X11097Y-9274D01*
X11001Y-9274D01*
X11001Y-8715D01*
X11000Y-8549D01*
X10969Y-8518D01*
X10752Y-8518D01*
X10752Y-8833D01*
X10783Y-8865D01*
X10900Y-8865D01*
X10946Y-8846D01*
X10981Y-8811D01*
X11000Y-8765D01*
X11001Y-8715D01*
X11001Y-9274D01*
X10950Y-9274D01*
X10813Y-9331D01*
X10709Y-9435D01*
X10684Y-9495D01*
X10684Y-8833D01*
X10684Y-8518D01*
X10684Y-8450D01*
X10684Y-8134D01*
X10653Y-8103D01*
X10536Y-8103D01*
X10490Y-8122D01*
X10455Y-8157D01*
X10436Y-8203D01*
X10436Y-8253D01*
X10436Y-8419D01*
X10467Y-8450D01*
X10684Y-8450D01*
X10684Y-8518D01*
X10467Y-8518D01*
X10436Y-8549D01*
X10436Y-8715D01*
X10436Y-8765D01*
X10455Y-8811D01*
X10490Y-8846D01*
X10536Y-8865D01*
X10653Y-8865D01*
X10684Y-8833D01*
X10684Y-9495D01*
X10652Y-9571D01*
X10652Y-9719D01*
X10709Y-9855D01*
X10813Y-9959D01*
X10949Y-10016D01*
X11097Y-10016D01*
X11233Y-9960D01*
X11337Y-9855D01*
X11394Y-9719D01*
X11394Y-9572D01*
X11394Y-10105D01*
X10607Y-10096D01*
X10607Y-9572D01*
X10550Y-9435D01*
X10446Y-9331D01*
X10310Y-9274D01*
X10162Y-9274D01*
X10026Y-9331D01*
X10016Y-9340D01*
X10016Y-8715D01*
X10016Y-8253D01*
X10016Y-8203D01*
X9997Y-8157D01*
X9962Y-8122D01*
X9916Y-8103D01*
X9799Y-8103D01*
X9768Y-8134D01*
X9768Y-8450D01*
X9985Y-8450D01*
X10016Y-8419D01*
X10016Y-8253D01*
X10016Y-8715D01*
X10016Y-8549D01*
X9985Y-8518D01*
X9768Y-8518D01*
X9768Y-8833D01*
X9799Y-8865D01*
X9916Y-8865D01*
X9962Y-8846D01*
X9997Y-8811D01*
X10016Y-8765D01*
X10016Y-8715D01*
X10016Y-9340D01*
X9922Y-9435D01*
X9865Y-9571D01*
X9865Y-9719D01*
X9921Y-9855D01*
X10025Y-9959D01*
X10162Y-10016D01*
X10309Y-10016D01*
X10445Y-9960D01*
X10550Y-9855D01*
X10606Y-9719D01*
X10607Y-9572D01*
X10607Y-10096D01*
X9819Y-10087D01*
X9819Y-9572D01*
X9763Y-9435D01*
X9700Y-9372D01*
X9700Y-8833D01*
X9700Y-8518D01*
X9700Y-8450D01*
X9700Y-8134D01*
X9669Y-8103D01*
X9552Y-8103D01*
X9506Y-8122D01*
X9470Y-8157D01*
X9451Y-8203D01*
X9451Y-8253D01*
X9451Y-8419D01*
X9483Y-8450D01*
X9700Y-8450D01*
X9700Y-8518D01*
X9483Y-8518D01*
X9451Y-8549D01*
X9451Y-8715D01*
X9451Y-8765D01*
X9470Y-8811D01*
X9506Y-8846D01*
X9552Y-8865D01*
X9669Y-8865D01*
X9700Y-8833D01*
X9700Y-9372D01*
X9659Y-9331D01*
X9522Y-9274D01*
X9375Y-9274D01*
X9302Y-9305D01*
X9012Y-9015D01*
X9012Y-8719D01*
X9012Y-8207D01*
X8996Y-8168D01*
X8967Y-8139D01*
X8928Y-8123D01*
X8886Y-8123D01*
X8571Y-8123D01*
X8533Y-8139D01*
X8503Y-8168D01*
X8487Y-8207D01*
X8487Y-8249D01*
X8487Y-8760D01*
X8503Y-8799D01*
X8532Y-8829D01*
X8571Y-8845D01*
X8613Y-8845D01*
X8928Y-8845D01*
X8966Y-8829D01*
X8996Y-8799D01*
X9012Y-8761D01*
X9012Y-8719D01*
X9012Y-9015D01*
X8974Y-8977D01*
X8921Y-8942D01*
X8858Y-8929D01*
X8058Y-8929D01*
X8058Y-8876D01*
X8042Y-8838D01*
X8012Y-8808D01*
X7974Y-8792D01*
X7941Y-8792D01*
X7941Y-8727D01*
X8052Y-8727D01*
X8090Y-8711D01*
X8120Y-8681D01*
X8136Y-8643D01*
X8136Y-8601D01*
X8136Y-8286D01*
X8120Y-8247D01*
X8091Y-8218D01*
X8052Y-8202D01*
X8010Y-8202D01*
X7538Y-8202D01*
X7499Y-8218D01*
X7470Y-8247D01*
X7454Y-8286D01*
X7454Y-8327D01*
X7454Y-8642D01*
X7469Y-8681D01*
X7499Y-8711D01*
X7538Y-8727D01*
X7579Y-8727D01*
X7611Y-8727D01*
X7611Y-8792D01*
X7578Y-8792D01*
X7539Y-8808D01*
X7510Y-8837D01*
X7494Y-8876D01*
X7494Y-8918D01*
X7494Y-9312D01*
X7510Y-9350D01*
X7539Y-9380D01*
X7578Y-9396D01*
X7620Y-9396D01*
X7974Y-9396D01*
X8012Y-9380D01*
X8042Y-9351D01*
X8058Y-9312D01*
X8058Y-9270D01*
X8058Y-9259D01*
X8564Y-9259D01*
X8455Y-9304D01*
X8426Y-9363D01*
X8661Y-9597D01*
X8666Y-9592D01*
X8715Y-9640D01*
X8709Y-9645D01*
X8943Y-9880D01*
X9002Y-9851D01*
X9055Y-9705D01*
X9048Y-9549D01*
X9025Y-9494D01*
X9085Y-9554D01*
X9078Y-9571D01*
X9078Y-9719D01*
X9134Y-9855D01*
X9238Y-9959D01*
X9374Y-10016D01*
X9522Y-10016D01*
X9658Y-9960D01*
X9762Y-9855D01*
X9819Y-9719D01*
X9819Y-9572D01*
X9819Y-10087D01*
X8895Y-10077D01*
X8895Y-9928D01*
X8661Y-9693D01*
X8613Y-9741D01*
X8613Y-9645D01*
X8378Y-9411D01*
X8320Y-9439D01*
X8267Y-9586D01*
X8274Y-9741D01*
X8320Y-9851D01*
X8378Y-9880D01*
X8613Y-9645D01*
X8613Y-9741D01*
X8426Y-9928D01*
X8455Y-9986D01*
X8601Y-10039D01*
X8757Y-10032D01*
X8867Y-9986D01*
X8895Y-9928D01*
X8895Y-10077D01*
X7486Y-10061D01*
X7486Y-9266D01*
X7486Y-8922D01*
X7486Y-8872D01*
X7467Y-8826D01*
X7432Y-8791D01*
X7386Y-8772D01*
X7249Y-8772D01*
X7218Y-8803D01*
X7218Y-9060D01*
X7455Y-9060D01*
X7486Y-9029D01*
X7486Y-8922D01*
X7486Y-9266D01*
X7486Y-9159D01*
X7455Y-9128D01*
X7218Y-9128D01*
X7218Y-9385D01*
X7249Y-9416D01*
X7386Y-9416D01*
X7432Y-9397D01*
X7467Y-9362D01*
X7486Y-9316D01*
X7486Y-9266D01*
X7486Y-10061D01*
X7150Y-10057D01*
X7150Y-9385D01*
X7150Y-9128D01*
X7150Y-9060D01*
X7150Y-8803D01*
X7150Y-7416D01*
X7150Y-7159D01*
X6913Y-7159D01*
X6882Y-7191D01*
X6882Y-7298D01*
X6882Y-7347D01*
X6901Y-7393D01*
X6936Y-7429D01*
X6982Y-7448D01*
X7119Y-7447D01*
X7150Y-7416D01*
X7150Y-8803D01*
X7119Y-8772D01*
X6982Y-8772D01*
X6936Y-8791D01*
X6901Y-8826D01*
X6882Y-8872D01*
X6882Y-8922D01*
X6882Y-9029D01*
X6913Y-9060D01*
X7150Y-9060D01*
X7150Y-9128D01*
X6913Y-9128D01*
X6882Y-9159D01*
X6882Y-9266D01*
X6882Y-9316D01*
X6901Y-9362D01*
X6936Y-9397D01*
X6982Y-9416D01*
X7119Y-9416D01*
X7150Y-9385D01*
X7150Y-10057D01*
X6817Y-10054D01*
X6817Y-6817D01*
X6949Y-6817D01*
X6936Y-6822D01*
X6901Y-6858D01*
X6882Y-6904D01*
X6882Y-6953D01*
X6882Y-7060D01*
X6913Y-7091D01*
X7150Y-7091D01*
X7150Y-7084D01*
X7218Y-7084D01*
X7218Y-7091D01*
X7455Y-7091D01*
X7486Y-7060D01*
X7486Y-6953D01*
X7486Y-6904D01*
X7467Y-6858D01*
X7432Y-6822D01*
X7419Y-6817D01*
X8067Y-6817D01*
X8028Y-6855D01*
X8012Y-6840D01*
X7974Y-6824D01*
X7932Y-6823D01*
X7578Y-6823D01*
X7539Y-6839D01*
X7510Y-6869D01*
X7494Y-6908D01*
X7494Y-6949D01*
X7494Y-7343D01*
X7510Y-7382D01*
X7539Y-7411D01*
X7578Y-7427D01*
X7620Y-7428D01*
X7630Y-7428D01*
X7630Y-7493D01*
X7538Y-7493D01*
X7499Y-7509D01*
X7486Y-7522D01*
X7486Y-7298D01*
X7486Y-7191D01*
X7455Y-7159D01*
X7218Y-7159D01*
X7218Y-7416D01*
X7249Y-7447D01*
X7386Y-7448D01*
X7432Y-7429D01*
X7467Y-7393D01*
X7486Y-7347D01*
X7486Y-7298D01*
X7486Y-7522D01*
X7470Y-7538D01*
X7454Y-7577D01*
X7454Y-7619D01*
X7454Y-7934D01*
X7469Y-7972D01*
X7499Y-8002D01*
X7538Y-8018D01*
X7579Y-8018D01*
X8052Y-8018D01*
X8090Y-8002D01*
X8120Y-7972D01*
X8136Y-7934D01*
X8136Y-7892D01*
X8136Y-7577D01*
X8120Y-7539D01*
X8091Y-7509D01*
X8052Y-7493D01*
X8010Y-7493D01*
X7960Y-7493D01*
X7960Y-7428D01*
X7974Y-7428D01*
X8012Y-7412D01*
X8042Y-7382D01*
X8058Y-7343D01*
X8058Y-7302D01*
X8058Y-7276D01*
X8058Y-7276D01*
X8108Y-7242D01*
X8257Y-7094D01*
X8575Y-7094D01*
X8575Y-7296D01*
X8571Y-7296D01*
X8533Y-7312D01*
X8503Y-7342D01*
X8487Y-7380D01*
X8487Y-7422D01*
X8487Y-7934D01*
X8503Y-7972D01*
X8532Y-8002D01*
X8571Y-8018D01*
X8613Y-8018D01*
X8928Y-8018D01*
X8966Y-8002D01*
X8996Y-7972D01*
X9012Y-7934D01*
X9012Y-7892D01*
X9012Y-7380D01*
X8996Y-7342D01*
X8967Y-7312D01*
X8928Y-7296D01*
X8905Y-7296D01*
X8905Y-7094D01*
X9944Y-7094D01*
X9742Y-7296D01*
X9555Y-7296D01*
X9517Y-7312D01*
X9487Y-7342D01*
X9471Y-7380D01*
X9471Y-7422D01*
X9471Y-7934D01*
X9487Y-7972D01*
X9517Y-8002D01*
X9555Y-8018D01*
X9597Y-8018D01*
X9912Y-8018D01*
X9951Y-8002D01*
X9980Y-7972D01*
X9996Y-7934D01*
X9996Y-7892D01*
X9996Y-7452D01*
X10138Y-7310D01*
X10526Y-7310D01*
X10521Y-7312D01*
X10491Y-7342D01*
X10475Y-7380D01*
X10475Y-7422D01*
X10475Y-7934D01*
X10491Y-7972D01*
X10521Y-8002D01*
X10559Y-8018D01*
X10601Y-8018D01*
X10726Y-8018D01*
X10811Y-8103D01*
X10783Y-8103D01*
X10752Y-8134D01*
X10752Y-8450D01*
X10969Y-8450D01*
X11000Y-8419D01*
X11001Y-8292D01*
X11114Y-8406D01*
X11114Y-8897D01*
X11124Y-8943D01*
X11125Y-8953D01*
X11157Y-9000D01*
X11314Y-9157D01*
X11314Y-9157D01*
X11346Y-9178D01*
X11361Y-9189D01*
X11361Y-9189D01*
X11417Y-9200D01*
X11947Y-9200D01*
X12254Y-9506D01*
X12227Y-9571D01*
X12227Y-9719D01*
X12283Y-9855D01*
X12388Y-9959D01*
X12524Y-10016D01*
X12671Y-10016D01*
X12808Y-9960D01*
X12912Y-9855D01*
X12969Y-9719D01*
X12969Y-9572D01*
X12912Y-9435D01*
X12834Y-9357D01*
X12892Y-9357D01*
X13042Y-9506D01*
X13015Y-9571D01*
X13015Y-9719D01*
X13071Y-9855D01*
X13175Y-9959D01*
X13311Y-10016D01*
X13459Y-10016D01*
X13595Y-9960D01*
X13699Y-9855D01*
X13756Y-9719D01*
X13756Y-9572D01*
X13700Y-9435D01*
X13596Y-9331D01*
X13459Y-9274D01*
X13312Y-9274D01*
X13247Y-9301D01*
X13055Y-9110D01*
X13008Y-9078D01*
X12999Y-9076D01*
X12952Y-9067D01*
X12658Y-9067D01*
X12554Y-8963D01*
X12747Y-8963D01*
X12785Y-8947D01*
X12805Y-8928D01*
X12824Y-8947D01*
X12862Y-8963D01*
X12904Y-8963D01*
X13121Y-8963D01*
X13159Y-8947D01*
X13179Y-8928D01*
X13198Y-8947D01*
X13236Y-8963D01*
X13278Y-8963D01*
X13495Y-8963D01*
X13533Y-8947D01*
X13563Y-8917D01*
X13579Y-8879D01*
X13579Y-8837D01*
X13579Y-8365D01*
X13563Y-8326D01*
X13533Y-8296D01*
X13495Y-8280D01*
X13453Y-8280D01*
X13237Y-8280D01*
X13198Y-8296D01*
X13179Y-8316D01*
X13159Y-8296D01*
X13121Y-8280D01*
X13079Y-8280D01*
X12863Y-8280D01*
X12824Y-8296D01*
X12805Y-8316D01*
X12785Y-8296D01*
X12747Y-8280D01*
X12705Y-8280D01*
X12489Y-8280D01*
X12450Y-8296D01*
X12428Y-8318D01*
X12428Y-8267D01*
X12419Y-8221D01*
X12417Y-8212D01*
X12417Y-8212D01*
X12385Y-8165D01*
X11965Y-7744D01*
X11965Y-7380D01*
X11949Y-7342D01*
X11919Y-7312D01*
X11914Y-7310D01*
X12203Y-7310D01*
X12404Y-7511D01*
X12404Y-7776D01*
X12420Y-7815D01*
X12450Y-7844D01*
X12488Y-7860D01*
X12530Y-7860D01*
X12747Y-7860D01*
X12785Y-7844D01*
X12790Y-7839D01*
X12813Y-7861D01*
X12859Y-7880D01*
X12926Y-7880D01*
X12958Y-7849D01*
X12958Y-7553D01*
X12950Y-7553D01*
X12950Y-7485D01*
X12958Y-7485D01*
X12958Y-7189D01*
X12926Y-7158D01*
X12859Y-7158D01*
X12813Y-7177D01*
X12790Y-7199D01*
X12785Y-7194D01*
X12747Y-7178D01*
X12705Y-7178D01*
X12489Y-7178D01*
X12484Y-7180D01*
X12397Y-7094D01*
X13081Y-7094D01*
X13159Y-7172D01*
X13125Y-7158D01*
X13057Y-7158D01*
X13026Y-7189D01*
X13026Y-7485D01*
X13034Y-7485D01*
X13034Y-7553D01*
X13026Y-7553D01*
X13026Y-7849D01*
X13057Y-7880D01*
X13125Y-7880D01*
X13171Y-7861D01*
X13193Y-7839D01*
X13198Y-7844D01*
X13236Y-7860D01*
X13278Y-7860D01*
X13495Y-7860D01*
X13533Y-7844D01*
X13563Y-7815D01*
X13579Y-7776D01*
X13579Y-7735D01*
X13579Y-7262D01*
X13563Y-7224D01*
X13533Y-7194D01*
X13531Y-7193D01*
X13531Y-7145D01*
X13518Y-7082D01*
X13482Y-7028D01*
X13482Y-7028D01*
X13271Y-6817D01*
X13833Y-6817D01*
X13833Y-10111D01*
M02*
