G04 (created by PCBNEW (2013-07-07 BZR 4022)-stable) date 2014/09/01 18:11:11*
%MOIN*%
G04 Gerber Fmt 3.4, Leading zero omitted, Abs format*
%FSLAX34Y34*%
G01*
G70*
G90*
G04 APERTURE LIST*
%ADD10C,0.00590551*%
%ADD11C,0.0531496*%
%ADD12C,0.035*%
%ADD13C,0.02*%
%ADD14C,0.012*%
%ADD15C,0.008*%
%ADD16C,0.005*%
G04 APERTURE END LIST*
G54D10*
G54D11*
X8661Y-9645D03*
X9448Y-9645D03*
X10236Y-9645D03*
X11023Y-9645D03*
X11811Y-9645D03*
X12598Y-9645D03*
X13385Y-9645D03*
G54D12*
X13307Y-8110D03*
X7165Y-8110D03*
X9291Y-8110D03*
G54D13*
X12618Y-8622D03*
X13366Y-8622D03*
X12992Y-8622D03*
G54D14*
X9291Y-8110D02*
X13307Y-8110D01*
X9291Y-8110D02*
X7165Y-8110D01*
G54D15*
X11023Y-9645D02*
X11023Y-9133D01*
X11259Y-8897D02*
X11023Y-9133D01*
X12342Y-8897D02*
X11259Y-8897D01*
X12342Y-8897D02*
X12618Y-8622D01*
X10236Y-9645D02*
X10236Y-9448D01*
X11338Y-8346D02*
X10236Y-9448D01*
X13070Y-8346D02*
X11338Y-8346D01*
X13208Y-8484D02*
X13070Y-8346D01*
X13228Y-8484D02*
X13208Y-8484D01*
X13228Y-8484D02*
X13366Y-8622D01*
X11811Y-9645D02*
X11811Y-9212D01*
X11889Y-9133D02*
X11811Y-9212D01*
X12480Y-9133D02*
X11889Y-9133D01*
X12480Y-9133D02*
X12992Y-8622D01*
G54D10*
G36*
X13833Y-10111D02*
X13756Y-10111D01*
X13756Y-9572D01*
X13700Y-9435D01*
X13596Y-9331D01*
X13571Y-9321D01*
X13571Y-8581D01*
X13540Y-8506D01*
X13482Y-8448D01*
X13407Y-8417D01*
X13366Y-8417D01*
X13330Y-8381D01*
X13283Y-8350D01*
X13278Y-8349D01*
X13173Y-8243D01*
X13126Y-8212D01*
X13117Y-8210D01*
X13070Y-8201D01*
X11338Y-8201D01*
X11283Y-8212D01*
X11267Y-8222D01*
X11236Y-8243D01*
X10205Y-9274D01*
X10162Y-9274D01*
X10026Y-9331D01*
X9922Y-9435D01*
X9865Y-9571D01*
X9865Y-9719D01*
X9921Y-9855D01*
X10025Y-9959D01*
X10162Y-10016D01*
X10309Y-10016D01*
X10445Y-9960D01*
X10550Y-9855D01*
X10606Y-9719D01*
X10607Y-9572D01*
X10550Y-9435D01*
X10502Y-9387D01*
X11398Y-8491D01*
X12458Y-8491D01*
X12444Y-8505D01*
X12413Y-8581D01*
X12413Y-8621D01*
X12282Y-8752D01*
X11259Y-8752D01*
X11213Y-8761D01*
X11204Y-8763D01*
X11157Y-8795D01*
X10921Y-9031D01*
X10889Y-9078D01*
X10887Y-9087D01*
X10878Y-9133D01*
X10878Y-9304D01*
X10813Y-9331D01*
X10709Y-9435D01*
X10652Y-9571D01*
X10652Y-9719D01*
X10709Y-9855D01*
X10813Y-9959D01*
X10949Y-10016D01*
X11097Y-10016D01*
X11233Y-9960D01*
X11337Y-9855D01*
X11394Y-9719D01*
X11394Y-9572D01*
X11338Y-9435D01*
X11233Y-9331D01*
X11168Y-9304D01*
X11168Y-9193D01*
X11319Y-9042D01*
X11775Y-9042D01*
X11708Y-9110D01*
X11677Y-9157D01*
X11675Y-9166D01*
X11666Y-9212D01*
X11666Y-9304D01*
X11601Y-9331D01*
X11496Y-9435D01*
X11440Y-9571D01*
X11440Y-9719D01*
X11496Y-9855D01*
X11600Y-9959D01*
X11736Y-10016D01*
X11884Y-10016D01*
X12020Y-9960D01*
X12125Y-9855D01*
X12181Y-9719D01*
X12181Y-9572D01*
X12125Y-9435D01*
X12021Y-9331D01*
X11956Y-9304D01*
X11956Y-9278D01*
X12480Y-9278D01*
X12480Y-9278D01*
X12526Y-9269D01*
X12535Y-9267D01*
X12535Y-9267D01*
X12582Y-9236D01*
X12992Y-8827D01*
X13032Y-8827D01*
X13108Y-8795D01*
X13165Y-8738D01*
X13179Y-8706D01*
X13192Y-8738D01*
X13249Y-8795D01*
X13325Y-8827D01*
X13406Y-8827D01*
X13482Y-8795D01*
X13539Y-8738D01*
X13571Y-8663D01*
X13571Y-8581D01*
X13571Y-9321D01*
X13459Y-9274D01*
X13312Y-9274D01*
X13176Y-9331D01*
X13071Y-9435D01*
X13015Y-9571D01*
X13015Y-9719D01*
X13071Y-9855D01*
X13175Y-9959D01*
X13311Y-10016D01*
X13459Y-10016D01*
X13595Y-9960D01*
X13699Y-9855D01*
X13756Y-9719D01*
X13756Y-9572D01*
X13756Y-10111D01*
X12969Y-10111D01*
X12969Y-9572D01*
X12912Y-9435D01*
X12808Y-9331D01*
X12672Y-9274D01*
X12525Y-9274D01*
X12388Y-9331D01*
X12284Y-9435D01*
X12227Y-9571D01*
X12227Y-9719D01*
X12283Y-9855D01*
X12388Y-9959D01*
X12524Y-10016D01*
X12671Y-10016D01*
X12808Y-9960D01*
X12912Y-9855D01*
X12969Y-9719D01*
X12969Y-9572D01*
X12969Y-10111D01*
X11973Y-10111D01*
X9819Y-10087D01*
X9819Y-9572D01*
X9763Y-9435D01*
X9659Y-9331D01*
X9522Y-9274D01*
X9375Y-9274D01*
X9239Y-9331D01*
X9134Y-9435D01*
X9078Y-9571D01*
X9078Y-9719D01*
X9134Y-9855D01*
X9238Y-9959D01*
X9374Y-10016D01*
X9522Y-10016D01*
X9658Y-9960D01*
X9762Y-9855D01*
X9819Y-9719D01*
X9819Y-9572D01*
X9819Y-10087D01*
X9055Y-10079D01*
X9055Y-9705D01*
X9048Y-9549D01*
X9002Y-9439D01*
X8943Y-9411D01*
X8895Y-9459D01*
X8895Y-9363D01*
X8867Y-9304D01*
X8721Y-9251D01*
X8565Y-9258D01*
X8455Y-9304D01*
X8426Y-9363D01*
X8661Y-9597D01*
X8895Y-9363D01*
X8895Y-9459D01*
X8709Y-9645D01*
X8943Y-9880D01*
X9002Y-9851D01*
X9055Y-9705D01*
X9055Y-10079D01*
X8895Y-10077D01*
X8895Y-9928D01*
X8661Y-9693D01*
X8613Y-9741D01*
X8613Y-9645D01*
X8378Y-9411D01*
X8320Y-9439D01*
X8267Y-9586D01*
X8274Y-9741D01*
X8320Y-9851D01*
X8378Y-9880D01*
X8613Y-9645D01*
X8613Y-9741D01*
X8426Y-9928D01*
X8455Y-9986D01*
X8601Y-10039D01*
X8757Y-10032D01*
X8867Y-9986D01*
X8895Y-9928D01*
X8895Y-10077D01*
X6817Y-10054D01*
X6817Y-6817D01*
X13833Y-6817D01*
X13833Y-10111D01*
X13833Y-10111D01*
G37*
G54D16*
X13833Y-10111D02*
X13756Y-10111D01*
X13756Y-9572D01*
X13700Y-9435D01*
X13596Y-9331D01*
X13571Y-9321D01*
X13571Y-8581D01*
X13540Y-8506D01*
X13482Y-8448D01*
X13407Y-8417D01*
X13366Y-8417D01*
X13330Y-8381D01*
X13283Y-8350D01*
X13278Y-8349D01*
X13173Y-8243D01*
X13126Y-8212D01*
X13117Y-8210D01*
X13070Y-8201D01*
X11338Y-8201D01*
X11283Y-8212D01*
X11267Y-8222D01*
X11236Y-8243D01*
X10205Y-9274D01*
X10162Y-9274D01*
X10026Y-9331D01*
X9922Y-9435D01*
X9865Y-9571D01*
X9865Y-9719D01*
X9921Y-9855D01*
X10025Y-9959D01*
X10162Y-10016D01*
X10309Y-10016D01*
X10445Y-9960D01*
X10550Y-9855D01*
X10606Y-9719D01*
X10607Y-9572D01*
X10550Y-9435D01*
X10502Y-9387D01*
X11398Y-8491D01*
X12458Y-8491D01*
X12444Y-8505D01*
X12413Y-8581D01*
X12413Y-8621D01*
X12282Y-8752D01*
X11259Y-8752D01*
X11213Y-8761D01*
X11204Y-8763D01*
X11157Y-8795D01*
X10921Y-9031D01*
X10889Y-9078D01*
X10887Y-9087D01*
X10878Y-9133D01*
X10878Y-9304D01*
X10813Y-9331D01*
X10709Y-9435D01*
X10652Y-9571D01*
X10652Y-9719D01*
X10709Y-9855D01*
X10813Y-9959D01*
X10949Y-10016D01*
X11097Y-10016D01*
X11233Y-9960D01*
X11337Y-9855D01*
X11394Y-9719D01*
X11394Y-9572D01*
X11338Y-9435D01*
X11233Y-9331D01*
X11168Y-9304D01*
X11168Y-9193D01*
X11319Y-9042D01*
X11775Y-9042D01*
X11708Y-9110D01*
X11677Y-9157D01*
X11675Y-9166D01*
X11666Y-9212D01*
X11666Y-9304D01*
X11601Y-9331D01*
X11496Y-9435D01*
X11440Y-9571D01*
X11440Y-9719D01*
X11496Y-9855D01*
X11600Y-9959D01*
X11736Y-10016D01*
X11884Y-10016D01*
X12020Y-9960D01*
X12125Y-9855D01*
X12181Y-9719D01*
X12181Y-9572D01*
X12125Y-9435D01*
X12021Y-9331D01*
X11956Y-9304D01*
X11956Y-9278D01*
X12480Y-9278D01*
X12480Y-9278D01*
X12526Y-9269D01*
X12535Y-9267D01*
X12535Y-9267D01*
X12582Y-9236D01*
X12992Y-8827D01*
X13032Y-8827D01*
X13108Y-8795D01*
X13165Y-8738D01*
X13179Y-8706D01*
X13192Y-8738D01*
X13249Y-8795D01*
X13325Y-8827D01*
X13406Y-8827D01*
X13482Y-8795D01*
X13539Y-8738D01*
X13571Y-8663D01*
X13571Y-8581D01*
X13571Y-9321D01*
X13459Y-9274D01*
X13312Y-9274D01*
X13176Y-9331D01*
X13071Y-9435D01*
X13015Y-9571D01*
X13015Y-9719D01*
X13071Y-9855D01*
X13175Y-9959D01*
X13311Y-10016D01*
X13459Y-10016D01*
X13595Y-9960D01*
X13699Y-9855D01*
X13756Y-9719D01*
X13756Y-9572D01*
X13756Y-10111D01*
X12969Y-10111D01*
X12969Y-9572D01*
X12912Y-9435D01*
X12808Y-9331D01*
X12672Y-9274D01*
X12525Y-9274D01*
X12388Y-9331D01*
X12284Y-9435D01*
X12227Y-9571D01*
X12227Y-9719D01*
X12283Y-9855D01*
X12388Y-9959D01*
X12524Y-10016D01*
X12671Y-10016D01*
X12808Y-9960D01*
X12912Y-9855D01*
X12969Y-9719D01*
X12969Y-9572D01*
X12969Y-10111D01*
X11973Y-10111D01*
X9819Y-10087D01*
X9819Y-9572D01*
X9763Y-9435D01*
X9659Y-9331D01*
X9522Y-9274D01*
X9375Y-9274D01*
X9239Y-9331D01*
X9134Y-9435D01*
X9078Y-9571D01*
X9078Y-9719D01*
X9134Y-9855D01*
X9238Y-9959D01*
X9374Y-10016D01*
X9522Y-10016D01*
X9658Y-9960D01*
X9762Y-9855D01*
X9819Y-9719D01*
X9819Y-9572D01*
X9819Y-10087D01*
X9055Y-10079D01*
X9055Y-9705D01*
X9048Y-9549D01*
X9002Y-9439D01*
X8943Y-9411D01*
X8895Y-9459D01*
X8895Y-9363D01*
X8867Y-9304D01*
X8721Y-9251D01*
X8565Y-9258D01*
X8455Y-9304D01*
X8426Y-9363D01*
X8661Y-9597D01*
X8895Y-9363D01*
X8895Y-9459D01*
X8709Y-9645D01*
X8943Y-9880D01*
X9002Y-9851D01*
X9055Y-9705D01*
X9055Y-10079D01*
X8895Y-10077D01*
X8895Y-9928D01*
X8661Y-9693D01*
X8613Y-9741D01*
X8613Y-9645D01*
X8378Y-9411D01*
X8320Y-9439D01*
X8267Y-9586D01*
X8274Y-9741D01*
X8320Y-9851D01*
X8378Y-9880D01*
X8613Y-9645D01*
X8613Y-9741D01*
X8426Y-9928D01*
X8455Y-9986D01*
X8601Y-10039D01*
X8757Y-10032D01*
X8867Y-9986D01*
X8895Y-9928D01*
X8895Y-10077D01*
X6817Y-10054D01*
X6817Y-6817D01*
X13833Y-6817D01*
X13833Y-10111D01*
M02*
