G04 (created by PCBNEW (2013-07-07 BZR 4022)-stable) date 2014/09/01 18:11:11*
%MOIN*%
G04 Gerber Fmt 3.4, Leading zero omitted, Abs format*
%FSLAX34Y34*%
G01*
G70*
G90*
G04 APERTURE LIST*
%ADD10C,0.00590551*%
%ADD11C,0.005*%
%ADD12C,0.0016*%
%ADD13R,0.0216535X0.0472441*%
%ADD14R,0.0551181X0.0511811*%
%ADD15R,0.0314961X0.0511811*%
%ADD16R,0.0472441X0.0314961*%
%ADD17R,0.0354X0.0394*%
%ADD18C,0.0531496*%
G04 APERTURE END LIST*
G54D10*
X12500Y-8385D02*
X12421Y-8385D01*
X12421Y-8385D02*
X12421Y-7755D01*
X12421Y-7755D02*
X12500Y-7755D01*
X13484Y-8385D02*
X13562Y-8385D01*
X13562Y-8385D02*
X13562Y-7755D01*
X13562Y-7755D02*
X13503Y-7755D01*
X8385Y-8070D02*
X8385Y-8700D01*
X8385Y-8700D02*
X8503Y-8700D01*
X8385Y-8070D02*
X8385Y-7440D01*
X8385Y-7440D02*
X8503Y-7440D01*
X12086Y-7440D02*
X12086Y-8700D01*
X12086Y-8700D02*
X11929Y-8700D01*
X12086Y-7440D02*
X11929Y-7440D01*
X11259Y-7440D02*
X10944Y-7440D01*
X11417Y-8700D02*
X10944Y-8700D01*
X10472Y-8700D02*
X10000Y-8700D01*
X10472Y-7440D02*
X10000Y-7440D01*
X9448Y-7440D02*
X9055Y-7440D01*
X9448Y-8700D02*
X9055Y-8700D01*
X10393Y-8700D02*
X10078Y-8700D01*
X11417Y-8700D02*
X11023Y-8700D01*
X8031Y-8267D02*
X8031Y-7952D01*
X7559Y-8267D02*
X7559Y-7952D01*
G54D11*
X7700Y-9254D02*
X7700Y-8934D01*
X7260Y-8944D02*
X7260Y-9254D01*
X7160Y-8934D02*
X7800Y-8934D01*
X7800Y-8934D02*
X7800Y-9254D01*
X7800Y-9254D02*
X7160Y-9254D01*
X7160Y-9254D02*
X7160Y-8934D01*
X7700Y-7285D02*
X7700Y-6965D01*
X7260Y-6975D02*
X7260Y-7285D01*
X7160Y-6965D02*
X7800Y-6965D01*
X7800Y-6965D02*
X7800Y-7285D01*
X7800Y-7285D02*
X7160Y-7285D01*
X7160Y-7285D02*
X7160Y-6965D01*
G54D10*
X8346Y-9251D02*
X13779Y-9251D01*
X13779Y-9251D02*
X13779Y-10039D01*
X13779Y-10039D02*
X8267Y-10039D01*
X8267Y-10039D02*
X8267Y-9251D01*
X8267Y-9251D02*
X8346Y-9251D01*
X12692Y-7875D02*
X12692Y-8194D01*
X12710Y-8232D01*
X12729Y-8250D01*
X12767Y-8269D01*
X12842Y-8269D01*
X12879Y-8250D01*
X12898Y-8232D01*
X12917Y-8194D01*
X12917Y-7875D01*
X13085Y-7913D02*
X13104Y-7894D01*
X13142Y-7875D01*
X13235Y-7875D01*
X13273Y-7894D01*
X13292Y-7913D01*
X13310Y-7950D01*
X13310Y-7988D01*
X13292Y-8044D01*
X13067Y-8269D01*
X13310Y-8269D01*
X9936Y-7875D02*
X9936Y-8194D01*
X9955Y-8232D01*
X9973Y-8250D01*
X10011Y-8269D01*
X10086Y-8269D01*
X10123Y-8250D01*
X10142Y-8232D01*
X10161Y-8194D01*
X10161Y-7875D01*
X10554Y-8269D02*
X10329Y-8269D01*
X10442Y-8269D02*
X10442Y-7875D01*
X10404Y-7932D01*
X10367Y-7969D01*
X10329Y-7988D01*
X7954Y-8175D02*
X7954Y-8363D01*
X7560Y-8363D01*
X7954Y-7838D02*
X7954Y-8063D01*
X7954Y-7950D02*
X7560Y-7950D01*
X7617Y-7988D01*
X7654Y-8025D01*
X7673Y-8063D01*
G54D12*
X7467Y-9118D02*
X7463Y-9122D01*
X7452Y-9126D01*
X7444Y-9126D01*
X7433Y-9122D01*
X7425Y-9115D01*
X7422Y-9107D01*
X7418Y-9092D01*
X7418Y-9081D01*
X7422Y-9066D01*
X7425Y-9058D01*
X7433Y-9051D01*
X7444Y-9047D01*
X7452Y-9047D01*
X7463Y-9051D01*
X7467Y-9054D01*
X7542Y-9126D02*
X7497Y-9126D01*
X7519Y-9126D02*
X7519Y-9047D01*
X7512Y-9058D01*
X7504Y-9066D01*
X7497Y-9070D01*
X7467Y-7150D02*
X7463Y-7154D01*
X7452Y-7157D01*
X7444Y-7157D01*
X7433Y-7154D01*
X7425Y-7146D01*
X7422Y-7139D01*
X7418Y-7124D01*
X7418Y-7112D01*
X7422Y-7097D01*
X7425Y-7090D01*
X7433Y-7082D01*
X7444Y-7078D01*
X7452Y-7078D01*
X7463Y-7082D01*
X7467Y-7086D01*
X7497Y-7086D02*
X7501Y-7082D01*
X7508Y-7078D01*
X7527Y-7078D01*
X7534Y-7082D01*
X7538Y-7086D01*
X7542Y-7094D01*
X7542Y-7101D01*
X7538Y-7112D01*
X7493Y-7157D01*
X7542Y-7157D01*
G54D10*
X7583Y-10001D02*
X7583Y-9608D01*
X7733Y-9608D01*
X7770Y-9626D01*
X7789Y-9645D01*
X7808Y-9683D01*
X7808Y-9739D01*
X7789Y-9776D01*
X7770Y-9795D01*
X7733Y-9814D01*
X7583Y-9814D01*
X8183Y-10001D02*
X7958Y-10001D01*
X8070Y-10001D02*
X8070Y-9608D01*
X8033Y-9664D01*
X7995Y-9701D01*
X7958Y-9720D01*
%LPC*%
G54D13*
X13366Y-7519D03*
X12992Y-7519D03*
X12618Y-7519D03*
X12618Y-8622D03*
X12992Y-8622D03*
X13366Y-8622D03*
G54D14*
X11584Y-7657D03*
G54D15*
X10738Y-7657D03*
X9734Y-7657D03*
X8750Y-7657D03*
X8750Y-8484D03*
X9734Y-8484D03*
X10718Y-8484D03*
X11702Y-8484D03*
G54D16*
X7795Y-8464D03*
X7795Y-7755D03*
G54D17*
X7776Y-9094D03*
X7184Y-9094D03*
X7776Y-7125D03*
X7184Y-7125D03*
G54D18*
X8661Y-9645D03*
X9448Y-9645D03*
X10236Y-9645D03*
X11023Y-9645D03*
X11811Y-9645D03*
X12598Y-9645D03*
X13385Y-9645D03*
M02*
